<?xml version="1.0" encoding="UTF-8" standalone="no"?>
<!DOCTYPE svg PUBLIC "-//W3C//DTD SVG 1.1//EN" "http://www.w3.org/Graphics/SVG/1.1/DTD/svg11.dtd">
<svg width="100%" height="100%" viewBox="0 0 398 360" version="1.1" xmlns="http://www.w3.org/2000/svg" xmlns:xlink="http://www.w3.org/1999/xlink" xml:space="preserve" xmlns:serif="http://www.serif.com/" style="fill-rule:evenodd;clip-rule:evenodd;stroke-linejoin:round;stroke-miterlimit:2;">
    <g transform="matrix(1,0,0,1,-677.239,-115.153)">
        <g>
            <g transform="matrix(1,0,0,0.905261,539.911,27.9499)">
                <path d="M336.016,96.33C470.04,96.33 534.705,160.994 534.705,295.018C534.705,429.042 470.04,493.707 336.016,493.707C201.992,493.707 137.328,429.042 137.328,295.018C137.328,160.994 201.992,96.33 336.016,96.33Z" style="fill:rgb(255,200,0);fill-opacity:0.75;"/>
            </g>
            <g transform="matrix(1.23079,0,0,1.34274,105.17,-774.593)">
                <path d="M529.399,841.179C509.215,841.179 492.853,826.181 492.853,807.681L492.853,785.496C492.853,766.996 509.215,751.998 529.399,751.998L621.24,751.998C624.148,751.998 626.938,750.939 628.995,749.054C631.051,747.168 632.207,744.611 632.207,741.945C632.207,734.422 632.207,723.567 632.207,712.528C632.207,705.576 636.863,699.337 643.931,696.817C651,694.296 659.031,696.012 664.156,701.137C691.17,728.15 728.418,765.398 747.408,784.388C754.311,791.291 754.311,801.886 747.408,808.789C728.418,827.779 691.17,865.027 664.156,892.04C659.031,897.165 651,898.881 643.931,896.361C636.863,893.84 632.207,887.601 632.207,880.649C632.207,869.61 632.207,858.755 632.207,851.232C632.207,848.566 631.051,846.009 628.995,844.123C626.938,842.238 624.148,841.179 621.24,841.179C601.687,841.179 559.99,841.179 529.399,841.179Z" style="fill:white;"/>
            </g>
        </g>
    </g>
</svg>
